<?xml version="1.0" encoding="UTF-8" standalone="no"?>
<!-- Copyright 2017 mathsisfun.com -->
<svg xmlns="http://www.w3.org/2000/svg" xmlns:xlink="http://www.w3.org/1999/xlink" width="291.1" height="203.4" version="1.1" style="font-family:'Comic Sans MS'; font-size:24.2px; stroke-width:0.88;">
<defs>
	<marker style="overflow:visible;" orient="auto">
		<path transform="matrix(-1.1,0,0,-1.1,-1.1,0)" style="stroke-width:0.63; stroke-linejoin:round;" d="M 8.7,4 -2.2,0 8.7,-4 C 7,-1.6 7,1.6 8.7,4 Z"/>
	</marker>
	<linearGradient id="aa1">
		<stop offset="0" style="stop-color:black; stop-opacity:1;"/>
		<stop offset="1" style="stop-color:black; stop-opacity:0;"/>
	</linearGradient>
	<linearGradient gradientTransform="matrix(1.42375,0,0,1.42375,4326.53,109.794)" xlink:href="#aa1" x1="-508.4" y1="900.7" x2="-508.4" y2="873.4" gradientUnits="userSpaceOnUse"/>
	<marker id="aa3" style="overflow:visible;" orient="auto">
		<path transform="matrix(-1.1,0,0,-1.1,-1.1,0)" style="fill:#0000ff; stroke:#0000ff; stroke-width:0.63; stroke-linejoin:round;" d="M 8.7,4 -2.2,0 8.7,-4 C 7,-1.6 7,1.6 8.7,4 Z"/>
	</marker>
	<marker id="aa2" style="overflow:visible;" orient="auto">
		<path transform="matrix(-1.1,0,0,-1.1,-1.1,0)" style="fill:#ff0000; stroke:#ff0000; stroke-width:0.63; stroke-linejoin:round;" d="M 8.7,4 -2.2,0 8.7,-4 C 7,-1.6 7,1.6 8.7,4 Z"/>
	</marker>
	<marker style="overflow:visible;" orient="auto">
		<path transform="matrix(-1.1,0,0,-1.1,-1.1,0)" style="fill:#00d800; stroke:#00d800; stroke-width:0.63; stroke-linejoin:round;" d="M 8.7,4 -2.2,0 8.7,-4 C 7,-1.6 7,1.6 8.7,4 Z"/>
	</marker>
	<marker style="overflow:visible;" orient="auto">
		<path transform="matrix(-0.4,0,0,-0.4,-4,0)" style="stroke:black; stroke-width:1pt;" d="M 0,0 5,-5 -12.5,0 5,5 Z"/>
	</marker>
</defs>
<linearGradient gradientTransform="scale(4.5607,0.219265)" x1="0" y1="114" x2="228" y2="114" gradientUnits="userSpaceOnUse">
	<stop offset="0" style="stop-color:indigo;"/>
	<stop offset="25%" style="stop-color:blue;"/>
	<stop offset="100%" style="stop-color:white;"/>
</linearGradient>
<path style="fill:none; fill-opacity:0.75; stroke:#34ffff;" d="M 0,141.4 H 291.1"/>
<path style="fill:none; fill-opacity:0.75; stroke:#34ffff;" d="M 0,100.1 H 291.1"/>
<path style="fill:none; fill-opacity:0.75; stroke:#34ffff;" d="M 0,58.8 H 291.1"/>
<path style="fill:none; fill-opacity:0.75; stroke:#34ffff;" d="M 0,17.5 H 291.1"/>
<path style="fill:none; fill-opacity:0.75; stroke:#34ffff;" d="M 70.3,200.7 V 0"/>
<path style="fill:none; fill-opacity:0.75; stroke:#34ffff;" d="M 118.5,200.7 V 0"/>
<path style="fill:none; fill-opacity:0.75; stroke:#34ffff;" d="M 166.7,200.7 V 0"/>
<path style="fill:none; fill-opacity:0.75; stroke:#34ffff;" d="M 214.9,200.7 V 0"/>
<path style="fill:none; fill-opacity:0.75; stroke:#34ffff;" d="M 263.1,200.7 V 0"/>
<path style="fill:none; fill-opacity:0.75; stroke:#34ffff;" d="M 0,182.7 H 291.1"/>
<path style="fill:none; fill-opacity:0.75; stroke:#34ffff;" d="M 22.2,200.7 V 0"/>
<path style="marker-end:url(#aa2); fill:none; fill-opacity:0.75; stroke:#ff0000; stroke-width:1.65;" d="M 70.5,203.4 V 12.5"/>
<path style="marker-end:url(#aa3); fill:none; stroke:#0000ff; stroke-width:1.65;" d="M 0.5,141 H 267.5"/>
<text x="82.8" y="43.1" style="font-size:32.3px; overflow:visible; fill:#ff0000; stroke-width:1.65; stroke-linecap:round; stroke-linejoin:round;">y</text>
<text x="228.7" y="129.4" style="font-size:32.3px; overflow:visible; fill:#0000ff; stroke-width:1.65; stroke-linecap:round; stroke-linejoin:round;">x</text>
<text x="63" y="168.2" style="overflow:visible; fill:black; stroke-width:1.65; stroke-linecap:round; stroke-linejoin:round;">0</text>
<text x="112.6" y="168.5" style="overflow:visible; fill:black; stroke-width:1.65; stroke-linecap:round; stroke-linejoin:round;">1</text>
<text x="158.7" y="168.3" style="overflow:visible; fill:black; stroke-width:1.65; stroke-linecap:round; stroke-linejoin:round;">2</text>
<text x="206.8" y="168" style="overflow:visible; fill:black; stroke-width:1.65; stroke-linecap:round; stroke-linejoin:round;">3</text>
<text x="44.4" y="149" style="overflow:visible; fill:black; stroke-width:1.65; stroke-linecap:round; stroke-linejoin:round;">0</text>
<text x="46.6" y="107.5" style="overflow:visible; fill:black; stroke-width:1.65; stroke-linecap:round; stroke-linejoin:round;">1</text>
<text x="44.2" y="65.5" style="overflow:visible; fill:black; stroke-width:1.65; stroke-linecap:round; stroke-linejoin:round;">2</text>
</svg>