<svg width="676.587" height="343.027" viewBox="0 0 507.44 257.27" class="displayed_equation" xmlns="http://www.w3.org/2000/svg">
  <path d="M 123.984375 133.16875 L 2288.203125 133.16875 M 123.984375 223.325 L 2288.203125 223.325 M 123.984375 313.520312 L 2288.203125 313.520312 M 123.984375 403.676562 L 2288.203125 403.676562 M 123.984375 493.871875 L 2288.203125 493.871875 M 123.984375 584.028125 L 2288.203125 584.028125 M 123.984375 674.223437 L 2288.203125 674.223437 M 123.984375 764.379687 L 2288.203125 764.379687 M 123.984375 854.575 L 2288.203125 854.575 M 123.984375 944.73125 L 2288.203125 944.73125 M 123.984375 1034.926562 L 2288.203125 1034.926562 M 123.984375 1125.082812 L 2288.203125 1125.082812 M 123.984375 1215.278125 L 2288.203125 1215.278125 M 123.984375 1305.434375 L 2288.203125 1305.434375 M 123.984375 1395.629687 L 2288.203125 1395.629687 M 123.984375 1485.785937 L 2288.203125 1485.785937 M 123.984375 1575.98125 L 2288.203125 1575.98125 M 123.984375 1666.1375 L 2288.203125 1666.1375 M 123.984375 1756.332812 L 2288.203125 1756.332812 M 123.984375 1846.489062 L 2288.203125 1846.489062 M 123.984375 1936.684375 L 2288.203125 1936.684375 M 123.984375 2026.840625 L 2288.203125 2026.840625 M 123.984375 2117.035937 L 2288.203125 2117.035937 M 123.984375 2207.192187 L 2288.203125 2207.192187 M 123.984375 2297.3875 L 2288.203125 2297.3875 M 123.984375 133.16875 L 123.984375 2297.3875 M 214.140625 133.16875 L 214.140625 2297.3875 M 304.335938 133.16875 L 304.335938 2297.3875 M 394.492188 133.16875 L 394.492188 2297.3875 M 484.6875 133.16875 L 484.6875 2297.3875 M 574.84375 133.16875 L 574.84375 2297.3875 M 665.039063 133.16875 L 665.039063 2297.3875 M 755.195313 133.16875 L 755.195313 2297.3875 M 845.390625 133.16875 L 845.390625 2297.3875 M 935.546875 133.16875 L 935.546875 2297.3875 M 1025.742188 133.16875 L 1025.742188 2297.3875 M 1115.898438 133.16875 L 1115.898438 2297.3875 M 1206.09375 133.16875 L 1206.09375 2297.3875 M 1296.25 133.16875 L 1296.25 2297.3875 M 1386.445313 133.16875 L 1386.445313 2297.3875 M 1476.601563 133.16875 L 1476.601563 2297.3875 M 1566.796875 133.16875 L 1566.796875 2297.3875 M 1656.953125 133.16875 L 1656.953125 2297.3875 M 1747.148438 133.16875 L 1747.148438 2297.3875 M 1837.304688 133.16875 L 1837.304688 2297.3875 M 1927.460938 133.16875 L 1927.460938 2297.3875 M 2017.65625 133.16875 L 2017.65625 2297.3875 M 2107.851563 133.16875 L 2107.851563 2297.3875 M 2198.007813 133.16875 L 2198.007813 2297.3875 M 2288.203125 133.16875 L 2288.203125 2297.3875" transform="matrix(.1 0 0 -.1 0 257.27)" fill="none" stroke-width="3.985" stroke-linejoin="round" stroke="#dbdbdc" stroke-miterlimit="10" />
  <path d="M 123.984375 133.16875 L 2288.203125 133.16875 M 123.984375 493.871875 L 2288.203125 493.871875 M 123.984375 854.575 L 2288.203125 854.575 M 123.984375 1215.278125 L 2288.203125 1215.278125 M 123.984375 1575.98125 L 2288.203125 1575.98125 M 123.984375 1936.684375 L 2288.203125 1936.684375 M 123.984375 2297.309375 L 2288.203125 2297.309375 M 123.984375 133.16875 L 123.984375 2297.3875 M 484.6875 133.16875 L 484.6875 2297.3875 M 845.390625 133.16875 L 845.390625 2297.3875 M 1206.09375 133.16875 L 1206.09375 2297.3875 M 1566.796875 133.16875 L 1566.796875 2297.3875 M 1927.460938 133.16875 L 1927.460938 2297.3875 M 2288.125 133.16875 L 2288.125 2297.3875" transform="matrix(.1 0 0 -.1 0 257.27)" fill="none" stroke-width="3.985" stroke-linejoin="round" stroke="#a5a5a6" stroke-miterlimit="10" />
  <path d="M 484.6875 475.317187 L 484.6875 512.426562" transform="matrix(.1 0 0 -.1 0 257.27)" fill="none" stroke-width="7.97" stroke-linejoin="round" stroke="#000" stroke-miterlimit="10" />
  <path d="M42.390625 217.960938L49.039063 217.960938 49.039063 217.203125 42.390625 217.203125zM55.066406 218.707031L55.066406 217.9375 53.929688 217.9375 53.929688 213.273438 53.25 213.273438 49.84375 218.003906 49.84375 218.707031 52.9375 218.707031 52.9375 220.46875 53.929688 220.46875 53.929688 218.707031zM52.9375 217.9375L50.460938 217.9375 50.460938 217.894531 52.890625 214.492188 52.9375 214.492188 52.9375 217.9375" />
  <path d="M 845.390625 475.317187 L 845.390625 512.426562" transform="matrix(.1 0 0 -.1 0 257.27)" fill="none" stroke-width="7.97" stroke-linejoin="round" stroke="#000" stroke-miterlimit="10" />
  <path d="M78.390625 217.859375L85.039063 217.859375 85.039063 217.101563 78.390625 217.101563zM90.976563 218.585938L90.652344 218.585938C90.398438 219.253906 90.25 219.488281 89.660156 219.488281L88.109375 219.488281 87.328125 219.523438 87.328125 219.46875 88.800781 218.070313C89.984375 216.878906 90.617188 216.109375 90.617188 215.117188 90.617188 213.945313 89.738281 213.1875 88.476563 213.1875 87.394531 213.1875 86.636719 213.8125 86.289063 214.890625L86.558594 215.003906C86.972656 214.167969 87.460938 213.910156 88.1875 213.910156 89.046875 213.910156 89.582031 214.445313 89.582031 215.28125 89.582031 216.453125 89.023438 217.15625 87.921875 218.296875L86.222656 219.992188 86.222656 220.371094 90.617188 220.371094 90.976563 218.585938" />
  <path d="M 1566.757813 475.317187 L 1566.757813 512.426562" transform="matrix(.1 0 0 -.1 0 257.27)" fill="none" stroke-width="7.97" stroke-linejoin="round" stroke="#000" stroke-miterlimit="10" />
  <path d="M 159.078125 218.585938 L 158.753906 218.585938 C 158.496094 219.253906 158.351563 219.488281 157.757813 219.488281 L 156.210938 219.488281 L 155.429688 219.523438 L 155.429688 219.46875 L 156.902344 218.070313 C 158.085938 216.878906 158.71875 216.109375 158.71875 215.117188 C 158.71875 213.945313 157.839844 213.1875 156.578125 213.1875 C 155.496094 213.1875 154.738281 213.8125 154.390625 214.890625 L 154.660156 215.003906 C 155.070313 214.167969 155.5625 213.910156 156.289063 213.910156 C 157.148438 213.910156 157.679688 214.445313 157.679688 215.28125 C 157.679688 216.453125 157.121094 217.15625 156.019531 218.296875 L 154.324219 219.992188 L 154.324219 220.371094 L 158.71875 220.371094 L 159.078125 218.585938" />
  <path d="M 1927.460938 475.317187 L 1927.460938 512.426562" transform="matrix(.1 0 0 -.1 0 257.27)" fill="none" stroke-width="7.97" stroke-linejoin="round" stroke="#000" stroke-miterlimit="10" />
  <path d="M 195.367188 218.707031 L 195.367188 217.9375 L 194.226563 217.9375 L 194.226563 213.273438 L 193.546875 213.273438 L 190.144531 218.003906 L 190.144531 218.707031 L 193.234375 218.707031 L 193.234375 220.46875 L 194.226563 220.46875 L 194.226563 218.707031 Z M 193.234375 217.9375 L 190.757813 217.9375 L 190.757813 217.894531 L 193.191406 214.492188 L 193.234375 214.492188 L 193.234375 217.9375" />
  <path d="M 1187.539063 854.575 L 1224.648438 854.575" transform="matrix(.1 0 0 -.1 0 257.27)" fill="none" stroke-width="7.97" stroke-linejoin="round" stroke="#000" stroke-miterlimit="10" />
  <path d="M 114.878906 173.6875 L 114.554688 173.6875 C 114.296875 174.355469 114.152344 174.589844 113.558594 174.589844 L 112.007813 174.589844 L 111.226563 174.621094 L 111.226563 174.566406 L 112.703125 173.171875 C 113.882813 171.976563 114.519531 171.210938 114.519531 170.214844 C 114.519531 169.042969 113.636719 168.285156 112.378906 168.285156 C 111.296875 168.285156 110.539063 168.910156 110.191406 169.992188 L 110.460938 170.105469 C 110.871094 169.265625 111.363281 169.011719 112.089844 169.011719 C 112.945313 169.011719 113.480469 169.546875 113.480469 170.382813 C 113.480469 171.554688 112.921875 172.257813 111.820313 173.394531 L 110.121094 175.089844 L 110.121094 175.46875 L 114.519531 175.46875 L 114.878906 173.6875" />
  <path d="M 1187.539063 1215.278125 L 1224.648438 1215.278125" transform="matrix(.1 0 0 -.1 0 257.27)" fill="none" stroke-width="7.97" stroke-linejoin="round" stroke="#000" stroke-miterlimit="10" />
  <path d="M 115.066406 137.605469 L 115.066406 136.835938 L 113.929688 136.835938 L 113.929688 132.175781 L 113.246094 132.175781 L 109.84375 136.902344 L 109.84375 137.605469 L 112.9375 137.605469 L 112.9375 139.371094 L 113.929688 139.371094 L 113.929688 137.605469 Z M 112.9375 136.835938 L 110.460938 136.835938 L 110.460938 136.792969 L 112.890625 133.390625 L 112.9375 133.390625 L 112.9375 136.835938" />
  <path d="M 1187.539063 1575.942187 L 1224.648438 1575.942187" transform="matrix(.1 0 0 -.1 0 257.27)" fill="none" stroke-width="7.97" stroke-linejoin="round" stroke="#000" stroke-miterlimit="10" />
  <path d="M 114.328125 96.0625 C 111.929688 96.164063 110.203125 97.714844 110.203125 100.402344 C 110.203125 102.042969 110.925781 103.402344 112.589844 103.402344 C 113.996094 103.402344 114.796875 102.523438 114.796875 101.007813 C 114.796875 99.542969 114.007813 98.660156 112.789063 98.660156 C 112.210938 98.660156 111.796875 98.90625 111.339844 99.355469 L 111.261719 99.34375 C 111.539063 97.714844 112.789063 96.621094 114.351563 96.386719 Z M 113.828125 101.09375 C 113.828125 102.511719 113.382813 103.015625 112.632813 103.015625 C 111.664063 103.015625 111.207031 102.019531 111.207031 100.636719 C 111.207031 99.667969 111.808594 99.308594 112.457031 99.308594 C 113.382813 99.308594 113.828125 100.089844 113.828125 101.09375" />
  <path d="M 1187.539063 1936.645312 L 1224.648438 1936.645312" transform="matrix(.1 0 0 -.1 0 257.27)" fill="none" stroke-width="7.97" stroke-linejoin="round" stroke="#000" stroke-miterlimit="10" />
  <path d="M 114.699219 65.496094 C 114.699219 64.605469 114.296875 64.066406 112.992188 63.277344 L 112.992188 63.242188 C 114.027344 62.675781 114.429688 62.304688 114.429688 61.492188 C 114.429688 60.609375 113.582031 59.949219 112.476563 59.949219 C 111.25 59.949219 110.359375 60.585938 110.359375 61.601563 C 110.359375 62.363281 110.601563 62.816406 111.742188 63.609375 L 111.742188 63.644531 C 110.703125 64.335938 110.214844 64.691406 110.214844 65.585938 C 110.214844 66.722656 111.148438 67.304688 112.445313 67.304688 C 113.773438 67.304688 114.699219 66.667969 114.699219 65.496094 Z M 113.605469 61.46875 C 113.605469 62.183594 113.382813 62.617188 112.644531 63.0625 C 111.652344 62.460938 111.226563 62.0625 111.226563 61.402344 C 111.226563 60.722656 111.695313 60.320313 112.457031 60.320313 C 113.171875 60.320313 113.605469 60.730469 113.605469 61.46875 Z M 112.078125 63.824219 C 113.425781 64.691406 113.761719 65.105469 113.761719 65.820313 C 113.761719 66.578125 113.179688 66.957031 112.488281 66.957031 C 111.640625 66.957031 111.082031 66.5 111.082031 65.496094 C 111.082031 64.726563 111.441406 64.335938 112.078125 63.824219" />
  <path d="M 173.945313 493.871875 L 2238.203125 493.871875" transform="matrix(.1 0 0 -.1 0 257.27)" fill="none" stroke-width="7.97" stroke-linejoin="round" stroke="#000" stroke-miterlimit="10" />
  <path d="M 13.53125 207.882813 L 19 209.945313 L 17.195313 207.882813 L 19 205.820313" />
  <path d="M 135.3125 493.871875 L 190 473.246875 L 171.953125 493.871875 L 190 514.496875 Z M 135.3125 493.871875" transform="matrix(.1 0 0 -.1 0 257.27)" fill="none" stroke-width="7.97" stroke="#000" stroke-miterlimit="10" />
  <path d="M 227.683594 207.882813 L 222.214844 205.820313 L 224.019531 207.882813 L 222.214844 209.945313" />
  <path d="M 2276.835938 493.871875 L 2222.148438 514.496875 L 2240.195313 493.871875 L 2222.148438 473.246875 Z M 2276.835938 493.871875" transform="matrix(.1 0 0 -.1 0 257.27)" fill="none" stroke-width="7.97" stroke="#000" stroke-miterlimit="10" />
  <path d="M 236.515625 207.144531 L 236.480469 207.144531 L 236.347656 206.578125 C 236.191406 205.976563 235.976563 205.484375 235.710938 205.171875 L 235.542969 205.171875 L 233.992188 205.351563 L 233.992188 205.683594 C 233.992188 205.683594 234.160156 205.652344 234.339844 205.652344 C 235.074219 205.640625 235.265625 205.941406 235.566406 206.878906 L 235.878906 207.894531 L 235.074219 209.0625 C 234.640625 209.6875 234.4375 209.699219 234.394531 209.699219 C 234.203125 209.699219 233.9375 209.554688 233.691406 209.554688 C 233.421875 209.554688 233.257813 209.800781 233.257813 210.023438 C 233.257813 210.304688 233.421875 210.570313 233.902344 210.570313 C 234.574219 210.570313 234.941406 210.046875 235.296875 209.464844 L 236.011719 208.304688 L 236.054688 208.304688 L 236.335938 209.433594 C 236.492188 210.15625 236.738281 210.582031 237.25 210.582031 C 238.007813 210.582031 238.476563 209.824219 238.800781 209.332031 L 238.566406 209.152344 C 238.265625 209.554688 238.054688 209.777344 237.765625 209.777344 C 237.417969 209.777344 237.195313 209.367188 236.882813 208.339844 L 236.648438 207.582031 L 237.328125 206.5 C 237.519531 206.1875 237.675781 206.03125 237.929688 206.03125 C 238.078125 206.03125 238.332031 206.140625 238.511719 206.140625 C 238.8125 206.140625 239.023438 205.882813 239.023438 205.617188 C 239.023438 205.304688 238.890625 205.125 238.46875 205.125 C 237.808594 205.125 237.363281 205.671875 237.0625 206.210938 L 236.515625 207.144531" />
  <path d="M 1206.09375 183.129687 L 1206.09375 2247.3875" transform="matrix(.1 0 0 -.1 0 257.27)" fill="none" stroke-width="7.97" stroke-linejoin="round" stroke="#000" stroke-miterlimit="10" />
  <path d="M 120.609375 242.816406 L 122.671875 237.351563 L 120.609375 239.15625 L 118.542969 237.351563" />
  <path d="M 1206.09375 144.535937 L 1226.71875 199.184375 L 1206.09375 181.1375 L 1185.429688 199.184375 Z M 1206.09375 144.535937" transform="matrix(.1 0 0 -.1 0 257.27)" fill="none" stroke-width="7.97" stroke="#000" stroke-miterlimit="10" />
  <path d="M 120.609375 28.667969 L 118.542969 34.136719 L 120.609375 32.332031 L 122.671875 34.136719" />
  <path d="M 1206.09375 2286.020312 L 1185.429688 2231.332812 L 1206.09375 2249.379687 L 1226.71875 2231.332812 Z M 1206.09375 2286.020312" transform="matrix(.1 0 0 -.1 0 257.27)" fill="none" stroke-width="7.97" stroke="#000" stroke-miterlimit="10" />
  <path d="M120.601563 17.542969C120.464844 16.652344 120.386719 16.296875 120.140625 15.871094L119.976563 15.871094 118.390625 15.992188 118.390625 16.316406C118.390625 16.316406 118.625 16.296875 118.78125 16.296875 119.464844 16.296875 119.519531 16.84375 119.597656 17.34375L120.253906 21.269531C119.941406 21.75 119.140625 22.8125 118.925781 22.8125 118.679688 22.8125 118.558594 22.21875 118.132813 22.21875 117.878906 22.21875 117.699219 22.363281 117.699219 22.699219 117.699219 23.109375 118.089844 23.421875 118.558594 23.421875 119.40625 23.421875 120.1875 22.160156 121.023438 21.003906 121.605469 20.199219 122.242188 19.238281 122.84375 18.179688 123.199219 17.578125 123.332031 17.074219 123.332031 16.640625 123.332031 16.160156 123.042969 15.792969 122.632813 15.792969 122.308594 15.792969 122.140625 15.992188 122.140625 16.226563 122.140625 16.652344 122.6875 16.964844 122.6875 17.253906 122.6875 17.523438 122.585938 17.789063 122.320313 18.226563L121.035156 20.289063 120.96875 20.289063 120.867188 19.171875 120.601563 17.542969M116.121094 215.632813C116.121094 213.335938 115.117188 212.007813 113.679688 212.007813 112.0625 212.007813 111.203125 213.480469 111.203125 215.601563 111.203125 217.574219 111.859375 219.292969 113.65625 219.292969 115.40625 219.292969 116.121094 217.542969 116.121094 215.632813zM115.039063 215.699219C115.039063 217.84375 114.539063 218.890625 113.65625 218.890625 112.761719 218.890625 112.273438 217.820313 112.273438 215.65625 112.273438 213.445313 112.761719 212.386719 113.644531 212.386719 114.558594 212.386719 115.039063 213.4375 115.039063 215.699219" />
  <path d="M 761.796875 2309.535937 L 769.609375 2271.684375 L 771.367188 2263.16875 L 773.125 2254.692187 L 774.882813 2246.254687 L 776.640625 2237.85625 L 780.15625 2221.1375 L 783.671875 2204.575 L 785.429688 2196.332812 L 787.1875 2188.16875 L 788.984375 2179.965625 L 790.742188 2171.840625 L 792.5 2163.754687 L 796.015625 2147.660937 L 799.53125 2131.723437 L 801.289063 2123.79375 L 803.046875 2115.903125 L 804.804688 2108.051562 L 806.5625 2100.239062 L 808.320313 2092.465625 L 810.117188 2084.692187 L 813.632813 2069.301562 L 815.390625 2061.645312 L 817.148438 2054.028125 L 818.90625 2046.45 L 820.664063 2038.910937 L 824.179688 2023.910937 L 827.695313 2009.067187 L 829.492188 2001.684375 L 833.007813 1987.075 L 836.523438 1972.54375 L 838.28125 1965.35625 L 841.796875 1951.059375 L 843.554688 1943.95 L 847.070313 1929.8875 L 848.867188 1922.895312 L 850.585938 1915.903125 L 852.382813 1908.989062 L 855.898438 1895.239062 L 857.65625 1888.403125 L 861.171875 1874.8875 L 862.929688 1868.16875 L 866.445313 1854.809375 L 868.203125 1848.207812 L 869.960938 1841.645312 L 871.757813 1835.082812 L 873.515625 1828.559375 L 875.273438 1822.075 L 877.03125 1815.629687 L 878.789063 1809.223437 L 880.546875 1802.85625 L 884.0625 1790.2 L 887.578125 1777.7 L 889.335938 1771.489062 L 891.132813 1765.317187 L 892.890625 1759.184375 L 894.648438 1753.090625 L 898.164063 1740.98125 L 901.679688 1729.028125 L 903.4375 1723.090625 L 905.195313 1717.192187 L 906.953125 1711.371875 L 908.710938 1705.5125 L 910.46875 1699.73125 L 912.265625 1693.989062 L 914.023438 1688.246875 L 917.539063 1676.91875 L 919.296875 1671.29375 L 921.054688 1665.707812 L 922.8125 1660.160937 L 924.570313 1654.653125 L 928.085938 1643.715625 L 929.84375 1638.325 L 931.640625 1632.934375 L 933.398438 1627.582812 L 935.15625 1622.309375 L 936.914063 1616.996875 L 938.671875 1611.7625 L 942.1875 1601.371875 L 945.703125 1591.1375 L 949.21875 1581.059375 L 950.976563 1576.059375 L 952.773438 1571.098437 L 956.289063 1561.254687 L 959.804688 1551.567187 L 961.5625 1546.7625 L 965.078125 1537.309375 L 968.59375 1527.934375 L 970.351563 1523.325 L 972.148438 1518.754687 L 973.90625 1514.184375 L 977.421875 1505.2 L 979.179688 1500.746875 L 980.9375 1496.332812 L 984.453125 1487.582812 L 986.210938 1483.285937 L 989.726563 1474.770312 L 991.523438 1470.551562 L 993.28125 1466.371875 L 995.039063 1462.23125 L 996.796875 1458.129687 L 998.554688 1454.067187 L 1000.3125 1450.04375 L 1003.828125 1442.075 L 1005.585938 1438.129687 L 1007.34375 1434.223437 L 1009.101563 1430.395312 L 1010.898438 1426.567187 L 1012.65625 1422.739062 L 1014.414063 1418.989062 L 1017.929688 1411.567187 L 1019.6875 1407.895312 L 1023.203125 1400.707812 L 1024.960938 1397.153125 L 1028.476563 1390.121875 L 1030.234375 1386.684375 L 1032.03125 1383.285937 L 1033.789063 1379.8875 L 1035.546875 1376.528125 L 1040.820313 1366.684375 L 1042.578125 1363.48125 L 1044.335938 1360.317187 L 1047.851563 1354.067187 L 1049.648438 1350.98125 L 1053.164063 1344.965625 L 1054.921875 1341.996875 L 1058.4375 1336.1375 L 1061.953125 1330.434375 L 1065.46875 1324.8875 L 1067.226563 1322.153125 L 1068.984375 1319.457812 L 1070.742188 1316.801562 L 1072.539063 1314.184375 L 1076.054688 1309.028125 L 1079.570313 1304.028125 L 1081.328125 1301.567187 L 1083.085938 1299.145312 L 1084.84375 1296.7625 L 1086.601563 1294.41875 L 1088.398438 1292.075 L 1090.15625 1289.809375 L 1093.671875 1285.35625 L 1095.429688 1283.16875 L 1097.1875 1281.020312 L 1098.945313 1278.910937 L 1100.703125 1276.840625 L 1102.460938 1274.809375 L 1105.976563 1270.825 L 1107.734375 1268.871875 L 1109.492188 1266.996875 L 1111.289063 1265.121875 L 1113.046875 1263.285937 L 1116.5625 1259.692187 L 1118.320313 1257.973437 L 1121.835938 1254.614062 L 1125.351563 1251.410937 L 1127.109375 1249.848437 L 1130.625 1246.801562 L 1132.421875 1245.35625 L 1135.9375 1242.54375 L 1139.453125 1239.8875 L 1141.210938 1238.598437 L 1142.96875 1237.348437 L 1144.726563 1236.1375 L 1148.242188 1233.79375 L 1150.039063 1232.7 L 1153.554688 1230.590625 L 1155.3125 1229.575 L 1157.070313 1228.598437 L 1158.828125 1227.660937 L 1162.34375 1225.864062 L 1165.859375 1224.223437 L 1169.375 1222.739062 L 1171.132813 1222.035937 L 1172.890625 1221.371875 L 1174.6875 1220.746875 L 1176.445313 1220.121875 L 1178.203125 1219.575 L 1181.71875 1218.559375 L 1183.476563 1218.090625 L 1185.234375 1217.660937 L 1186.992188 1217.309375 L 1188.789063 1216.957812 L 1190.546875 1216.60625 L 1194.0625 1216.059375 L 1197.578125 1215.66875 L 1199.335938 1215.5125 L 1201.09375 1215.395312 L 1202.851563 1215.317187 L 1204.609375 1215.278125 L 1206.367188 1215.278125 L 1209.882813 1215.35625 L 1211.640625 1215.434375 L 1213.4375 1215.551562 L 1216.953125 1215.942187 L 1220.46875 1216.410937 L 1223.984375 1217.035937 L 1227.5 1217.817187 L 1229.257813 1218.246875 L 1231.054688 1218.715625 L 1232.8125 1219.223437 L 1234.570313 1219.770312 L 1238.085938 1220.942187 L 1241.601563 1222.270312 L 1243.359375 1222.973437 L 1245.117188 1223.715625 L 1246.875 1224.496875 L 1248.632813 1225.317187 L 1250.390625 1226.176562 L 1252.1875 1227.035937 L 1255.703125 1228.910937 L 1259.21875 1230.942187 L 1262.734375 1233.051562 L 1264.492188 1234.184375 L 1266.25 1235.35625 L 1269.765625 1237.778125 L 1271.523438 1239.028125 L 1273.28125 1240.317187 L 1275.078125 1241.645312 L 1276.835938 1243.0125 L 1278.59375 1244.41875 L 1282.109375 1247.309375 L 1285.625 1250.35625 L 1287.382813 1251.91875 L 1289.140625 1253.559375 L 1290.9375 1255.160937 L 1292.695313 1256.840625 L 1294.453125 1258.559375 L 1297.96875 1262.075 L 1299.726563 1263.871875 L 1303.242188 1267.621875 L 1305 1269.535937 L 1306.757813 1271.489062 L 1310.273438 1275.473437 L 1312.03125 1277.54375 L 1313.828125 1279.614062 L 1317.34375 1283.910937 L 1319.101563 1286.098437 L 1320.859375 1288.325 L 1324.375 1292.85625 L 1327.890625 1297.54375 L 1329.648438 1299.965625 L 1331.445313 1302.3875 L 1333.203125 1304.848437 L 1334.960938 1307.348437 L 1336.71875 1309.8875 L 1340.234375 1315.04375 L 1343.75 1320.35625 L 1345.507813 1323.051562 L 1349.023438 1328.598437 L 1350.78125 1331.410937 L 1352.578125 1334.223437 L 1354.335938 1337.114062 L 1357.851563 1342.973437 L 1359.609375 1345.942187 L 1363.125 1352.035937 L 1364.882813 1355.121875 L 1368.398438 1361.371875 L 1371.914063 1367.778125 L 1373.710938 1371.059375 L 1375.46875 1374.340625 L 1377.226563 1377.660937 L 1378.984375 1381.020312 L 1380.742188 1384.41875 L 1384.257813 1391.29375 L 1387.773438 1398.325 L 1389.53125 1401.91875 L 1391.328125 1405.5125 L 1393.085938 1409.145312 L 1394.84375 1412.817187 L 1398.359375 1420.239062 L 1401.875 1427.817187 L 1405.390625 1435.551562 L 1407.148438 1439.457812 L 1408.90625 1443.403125 L 1410.664063 1447.3875 L 1412.421875 1451.410937 L 1414.21875 1455.434375 L 1417.734375 1463.6375 L 1419.492188 1467.778125 L 1424.765625 1480.434375 L 1426.523438 1484.73125 L 1430.039063 1493.403125 L 1431.835938 1497.817187 L 1433.59375 1502.23125 L 1435.351563 1506.684375 L 1440.625 1520.278125 L 1442.382813 1524.8875 L 1445.898438 1534.184375 L 1447.65625 1538.871875 L 1451.171875 1548.403125 L 1452.96875 1553.207812 L 1456.484375 1562.895312 L 1458.242188 1567.817187 L 1461.757813 1577.739062 L 1463.515625 1582.739062 L 1465.273438 1587.778125 L 1467.03125 1592.85625 L 1468.789063 1597.973437 L 1470.546875 1603.129687 L 1472.304688 1608.325 L 1474.101563 1613.559375 L 1475.859375 1618.79375 L 1477.617188 1624.067187 L 1479.375 1629.379687 L 1481.132813 1634.73125 L 1482.890625 1640.121875 L 1484.648438 1645.551562 L 1486.40625 1651.020312 L 1489.921875 1662.035937 L 1491.71875 1667.582812 L 1495.234375 1678.832812 L 1496.992188 1684.496875 L 1500.507813 1695.903125 L 1502.265625 1701.684375 L 1505.78125 1713.325 L 1507.539063 1719.184375 L 1511.054688 1731.059375 L 1512.8125 1737.035937 L 1514.609375 1743.0125 L 1518.125 1755.121875 L 1519.882813 1761.254687 L 1523.398438 1773.598437 L 1525.15625 1779.809375 L 1526.914063 1786.059375 L 1528.671875 1792.348437 L 1530.46875 1798.6375 L 1533.984375 1811.371875 L 1537.5 1824.2625 L 1539.257813 1830.746875 L 1541.015625 1837.270312 L 1542.773438 1843.832812 L 1544.53125 1850.434375 L 1548.046875 1863.715625 L 1551.5625 1877.153125 L 1553.359375 1883.910937 L 1555.117188 1890.707812 L 1556.875 1897.54375 L 1558.632813 1904.41875 L 1562.148438 1918.246875 L 1565.664063 1932.23125 L 1567.421875 1939.2625 L 1569.179688 1946.332812 L 1570.9375 1953.442187 L 1572.695313 1960.590625 L 1574.492188 1967.778125 L 1578.007813 1982.23125 L 1581.523438 1996.840625 L 1583.28125 2004.184375 L 1585.039063 2011.567187 L 1586.796875 2018.989062 L 1590.3125 2033.910937 L 1592.109375 2041.45 L 1595.625 2056.60625 L 1597.382813 2064.223437 L 1599.140625 2071.879687 L 1600.898438 2079.575 L 1602.65625 2087.309375 L 1606.171875 2102.85625 L 1609.6875 2118.559375 L 1613.203125 2134.41875 L 1614.960938 2142.3875 L 1616.757813 2150.395312 L 1618.515625 2158.403125 L 1622.03125 2174.575 L 1625.546875 2190.903125 L 1627.304688 2199.10625 L 1629.0625 2207.348437 L 1630.859375 2215.629687 L 1632.617188 2223.95 L 1636.132813 2240.66875 L 1639.648438 2257.54375 L 1644.921875 2283.090625 L 1646.679688 2291.684375" transform="matrix(.1 0 0 -.1 0 257.27)" fill="none" stroke-width="7.97" stroke-linejoin="round" stroke="#e14b3b" stroke-miterlimit="10" />
  <path d="M123.160156 135.742188C123.160156 134.335938 122.015625 133.191406 120.609375 133.191406 119.199219 133.191406 118.058594 134.335938 118.058594 135.742188 118.058594 137.152344 119.199219 138.292969 120.609375 138.292969 122.015625 138.292969 123.160156 137.152344 123.160156 135.742188zM93.179688 145.015625C93.179688 147.46875 94.351563 149.21875 96.148438 150.144531L96.328125 149.832031C94.695313 148.761719 94.09375 147.257813 94.09375 145.015625 94.09375 142.792969 94.695313 141.296875 96.328125 140.214844L96.148438 139.925781C94.351563 140.839844 93.179688 142.582031 93.179688 145.015625M101.921875 144.335938C101.921875 142.035156 100.917969 140.707031 99.476563 140.707031 97.859375 140.707031 97 142.179688 97 144.300781 97 146.273438 97.660156 147.992188 99.457031 147.992188 101.207031 147.992188 101.921875 146.242188 101.921875 144.335938zM100.839844 144.398438C100.839844 146.542969 100.339844 147.589844 99.457031 147.589844 98.5625 147.589844 98.070313 146.519531 98.070313 144.355469 98.070313 142.148438 98.5625 141.085938 99.445313 141.085938 100.359375 141.085938 100.839844 142.136719 100.839844 144.398438M103.125 149.453125C103.570313 149.253906 104.507813 148.875 104.507813 147.613281 104.507813 147 104.207031 146.632813 103.648438 146.632813 103.203125 146.632813 102.957031 146.933594 102.957031 147.289063 102.957031 147.613281 103.136719 147.890625 103.570313 147.890625 103.695313 147.890625 103.796875 147.871094 103.917969 147.824219 103.917969 148.730469 103.40625 148.996094 102.992188 149.175781L103.125 149.453125M112.265625 146.105469L112.265625 145.335938 111.128906 145.335938 111.128906 140.675781 110.449219 140.675781 107.046875 145.402344 107.046875 146.105469 110.136719 146.105469 110.136719 147.871094 111.128906 147.871094 111.128906 146.105469zM110.136719 145.335938L107.660156 145.335938 107.660156 145.292969 110.089844 141.890625 110.136719 141.890625 110.136719 145.335938M115.992188 145.015625C115.992188 142.582031 114.820313 140.839844 113.023438 139.925781L112.84375 140.214844C114.476563 141.296875 115.078125 142.792969 115.078125 145.015625 115.078125 147.257813 114.476563 148.761719 112.84375 149.832031L113.023438 150.144531C114.820313 149.21875 115.992188 147.46875 115.992188 145.015625" />
  <path d="M136.199219 131.144531C136.066406 130.25 135.988281 129.894531 135.742188 129.46875L135.574219 129.46875 133.992188 129.59375 133.992188 129.917969C133.992188 129.917969 134.226563 129.894531 134.382813 129.894531 135.0625 129.894531 135.117188 130.441406 135.195313 130.941406L135.855469 134.871094C135.542969 135.351563 134.738281 136.410156 134.527344 136.410156 134.28125 136.410156 134.160156 135.816406 133.734375 135.816406 133.476563 135.816406 133.300781 135.964844 133.300781 136.296875 133.300781 136.710938 133.691406 137.023438 134.160156 137.023438 135.007813 137.023438 135.789063 135.761719 136.621094 134.601563 137.203125 133.800781 137.839844 132.839844 138.441406 131.777344 138.800781 131.179688 138.933594 130.675781 138.933594 130.238281 138.933594 129.761719 138.644531 129.390625 138.230469 129.390625 137.90625 129.390625 137.738281 129.59375 137.738281 129.828125 137.738281 130.25 138.285156 130.5625 138.285156 130.855469 138.285156 131.121094 138.1875 131.390625 137.917969 131.824219L136.636719 133.890625 136.570313 133.890625 136.46875 132.773438 136.199219 131.144531M149.941406 131.121094L149.941406 130.363281 143.292969 130.363281 143.292969 131.121094zM149.941406 133.398438L149.941406 132.648438 143.292969 132.648438 143.292969 133.398438 149.941406 133.398438M157.3125 131.445313L157.28125 131.445313 157.148438 130.875C156.992188 130.273438 156.777344 129.78125 156.511719 129.46875L156.34375 129.46875 154.792969 129.648438 154.792969 129.984375C154.792969 129.984375 154.960938 129.949219 155.140625 129.949219 155.875 129.9375 156.0625 130.238281 156.367188 131.179688L156.679688 132.191406 155.875 133.363281C155.441406 133.988281 155.238281 134 155.195313 134 155.003906 134 154.738281 133.855469 154.492188 133.855469 154.222656 133.855469 154.054688 134.101563 154.054688 134.324219 154.054688 134.601563 154.222656 134.871094 154.703125 134.871094 155.371094 134.871094 155.742188 134.347656 156.097656 133.765625L156.8125 132.605469 156.855469 132.605469 157.136719 133.730469C157.292969 134.457031 157.539063 134.882813 158.050781 134.882813 158.808594 134.882813 159.277344 134.121094 159.601563 133.632813L159.367188 133.453125C159.066406 133.855469 158.851563 134.078125 158.5625 134.078125 158.21875 134.078125 157.996094 133.664063 157.683594 132.640625L157.449219 131.882813 158.128906 130.796875C158.320313 130.484375 158.476563 130.328125 158.730469 130.328125 158.878906 130.328125 159.132813 130.441406 159.3125 130.441406 159.613281 130.441406 159.824219 130.183594 159.824219 129.917969 159.824219 129.605469 159.691406 129.425781 159.265625 129.425781 158.609375 129.425781 158.164063 129.972656 157.859375 130.507813L157.3125 131.445313M164.210938 129.414063L163.9375 129.414063C163.734375 129.921875 163.640625 130.09375 163.199219 130.09375L162.183594 130.09375 161.578125 130.121094 161.578125 130.066406 162.550781 129.125C163.414063 128.277344 163.964844 127.707031 163.964844 126.941406 163.964844 126.0625 163.300781 125.539063 162.371094 125.539063 161.570313 125.539063 161.015625 125.984375 160.757813 126.710938L160.96875 126.8125C161.257813 126.304688 161.617188 126.09375 162.175781 126.09375 162.785156 126.09375 163.144531 126.488281 163.144531 127.046875 163.144531 127.925781 162.730469 128.394531 161.859375 129.265625L160.75 130.390625 160.75 130.769531 163.945313 130.769531 164.210938 129.414063M174.839844 132.257813L174.839844 131.5 171.917969 131.5 171.917969 128.546875 171.113281 128.546875 171.113281 131.5 168.191406 131.5 168.191406 132.257813 171.113281 132.257813 171.113281 135.21875 171.917969 135.21875 171.917969 132.257813 174.839844 132.257813M183.367188 133.007813L183.367188 132.238281 182.226563 132.238281 182.226563 127.574219 181.546875 127.574219 178.144531 132.304688 178.144531 133.007813 181.234375 133.007813 181.234375 134.769531 182.226563 134.769531 182.226563 133.007813zM181.234375 132.238281L178.757813 132.238281 178.757813 132.191406 181.191406 128.789063 181.234375 128.789063 181.234375 132.238281" fill="#e14b3b" />
  <path d="M 2648.90625 133.16875 L 4813.085938 133.16875 M 2648.90625 223.325 L 4813.085938 223.325 M 2648.90625 313.520312 L 4813.085938 313.520312 M 2648.90625 403.676562 L 4813.085938 403.676562 M 2648.90625 493.871875 L 4813.085938 493.871875 M 2648.90625 584.028125 L 4813.085938 584.028125 M 2648.90625 674.223437 L 4813.085938 674.223437 M 2648.90625 764.379687 L 4813.085938 764.379687 M 2648.90625 854.575 L 4813.085938 854.575 M 2648.90625 944.73125 L 4813.085938 944.73125 M 2648.90625 1034.926562 L 4813.085938 1034.926562 M 2648.90625 1125.082812 L 4813.085938 1125.082812 M 2648.90625 1215.278125 L 4813.085938 1215.278125 M 2648.90625 1305.434375 L 4813.085938 1305.434375 M 2648.90625 1395.629687 L 4813.085938 1395.629687 M 2648.90625 1485.785937 L 4813.085938 1485.785937 M 2648.90625 1575.98125 L 4813.085938 1575.98125 M 2648.90625 1666.1375 L 4813.085938 1666.1375 M 2648.90625 1756.332812 L 4813.085938 1756.332812 M 2648.90625 1846.489062 L 4813.085938 1846.489062 M 2648.90625 1936.684375 L 4813.085938 1936.684375 M 2648.90625 2026.840625 L 4813.085938 2026.840625 M 2648.90625 2117.035937 L 4813.085938 2117.035937 M 2648.90625 2207.192187 L 4813.085938 2207.192187 M 2648.90625 2297.3875 L 4813.085938 2297.3875 M 2648.90625 133.16875 L 2648.90625 2297.3875 M 2739.0625 133.16875 L 2739.0625 2297.3875 M 2829.257813 133.16875 L 2829.257813 2297.3875 M 2919.414063 133.16875 L 2919.414063 2297.3875 M 3009.609375 133.16875 L 3009.609375 2297.3875 M 3099.765625 133.16875 L 3099.765625 2297.3875 M 3189.921875 133.16875 L 3189.921875 2297.3875 M 3280.117188 133.16875 L 3280.117188 2297.3875 M 3370.273438 133.16875 L 3370.273438 2297.3875 M 3460.46875 133.16875 L 3460.46875 2297.3875 M 3550.625 133.16875 L 3550.625 2297.3875 M 3640.820313 133.16875 L 3640.820313 2297.3875 M 3731.015625 133.16875 L 3731.015625 2297.3875 M 3821.171875 133.16875 L 3821.171875 2297.3875 M 3911.367188 133.16875 L 3911.367188 2297.3875 M 4001.523438 133.16875 L 4001.523438 2297.3875 M 4091.71875 133.16875 L 4091.71875 2297.3875 M 4181.875 133.16875 L 4181.875 2297.3875 M 4272.03125 133.16875 L 4272.03125 2297.3875 M 4362.226563 133.16875 L 4362.226563 2297.3875 M 4452.382813 133.16875 L 4452.382813 2297.3875 M 4542.578125 133.16875 L 4542.578125 2297.3875 M 4632.734375 133.16875 L 4632.734375 2297.3875 M 4722.929688 133.16875 L 4722.929688 2297.3875 M 4813.085938 133.16875 L 4813.085938 2297.3875" transform="matrix(.1 0 0 -.1 0 257.27)" fill="none" stroke-width="3.985" stroke-linejoin="round" stroke="#dbdbdc" stroke-miterlimit="10" />
  <path d="M 2648.90625 133.16875 L 4813.085938 133.16875 M 2648.90625 493.871875 L 4813.085938 493.871875 M 2648.90625 854.575 L 4813.085938 854.575 M 2648.90625 1215.278125 L 4813.085938 1215.278125 M 2648.90625 1575.98125 L 4813.085938 1575.98125 M 2648.90625 1936.684375 L 4813.085938 1936.684375 M 2648.90625 2297.309375 L 4813.085938 2297.309375 M 2648.90625 133.16875 L 2648.90625 2297.3875 M 3009.609375 133.16875 L 3009.609375 2297.3875 M 3370.273438 133.16875 L 3370.273438 2297.3875 M 3731.015625 133.16875 L 3731.015625 2297.3875 M 4091.71875 133.16875 L 4091.71875 2297.3875 M 4452.382813 133.16875 L 4452.382813 2297.3875 M 4813.046875 133.16875 L 4813.046875 2297.3875" transform="matrix(.1 0 0 -.1 0 257.27)" fill="none" stroke-width="3.985" stroke-linejoin="round" stroke="#a5a5a6" stroke-miterlimit="10" />
  <path d="M 3009.570313 475.317187 L 3009.570313 512.426562" transform="matrix(.1 0 0 -.1 0 257.27)" fill="none" stroke-width="7.97" stroke-linejoin="round" stroke="#000" stroke-miterlimit="10" />
  <path d="M294.792969 217.960938L301.441406 217.960938 301.441406 217.203125 294.792969 217.203125zM307.566406 218.707031L307.566406 217.9375 306.429688 217.9375 306.429688 213.273438 305.746094 213.273438 302.34375 218.003906 302.34375 218.707031 305.4375 218.707031 305.4375 220.46875 306.429688 220.46875 306.429688 218.707031zM305.4375 217.9375L302.960938 217.9375 302.960938 217.894531 305.390625 214.492188 305.4375 214.492188 305.4375 217.9375" />
  <path d="M 3370.273438 475.317187 L 3370.273438 512.426562" transform="matrix(.1 0 0 -.1 0 257.27)" fill="none" stroke-width="7.97" stroke-linejoin="round" stroke="#000" stroke-miterlimit="10" />
  <path d="M330.890625 217.859375L337.539063 217.859375 337.539063 217.101563 330.890625 217.101563zM343.476563 218.585938L343.152344 218.585938C342.898438 219.253906 342.753906 219.488281 342.160156 219.488281L340.609375 219.488281 339.828125 219.523438 339.828125 219.46875 341.300781 218.070313C342.484375 216.878906 343.117188 216.109375 343.117188 215.117188 343.117188 213.945313 342.238281 213.1875 340.976563 213.1875 339.894531 213.1875 339.136719 213.8125 338.789063 214.890625L339.058594 215.003906C339.472656 214.167969 339.964844 213.910156 340.6875 213.910156 341.546875 213.910156 342.082031 214.445313 342.082031 215.28125 342.082031 216.453125 341.523438 217.15625 340.421875 218.296875L338.722656 219.992188 338.722656 220.371094 343.117188 220.371094 343.476563 218.585938" />
  <path d="M 4091.640625 475.317187 L 4091.640625 512.426562" transform="matrix(.1 0 0 -.1 0 257.27)" fill="none" stroke-width="7.97" stroke-linejoin="round" stroke="#000" stroke-miterlimit="10" />
  <path d="M 411.578125 218.585938 L 411.253906 218.585938 C 410.996094 219.253906 410.851563 219.488281 410.257813 219.488281 L 408.710938 219.488281 L 407.929688 219.523438 L 407.929688 219.46875 L 409.402344 218.070313 C 410.585938 216.878906 411.21875 216.109375 411.21875 215.117188 C 411.21875 213.945313 410.339844 213.1875 409.078125 213.1875 C 407.996094 213.1875 407.238281 213.8125 406.890625 214.890625 L 407.160156 215.003906 C 407.570313 214.167969 408.0625 213.910156 408.789063 213.910156 C 409.648438 213.910156 410.179688 214.445313 410.179688 215.28125 C 410.179688 216.453125 409.621094 217.15625 408.519531 218.296875 L 406.824219 219.992188 L 406.824219 220.371094 L 411.21875 220.371094 L 411.578125 218.585938" />
  <path d="M 4452.34375 475.317187 L 4452.34375 512.426562" transform="matrix(.1 0 0 -.1 0 257.27)" fill="none" stroke-width="7.97" stroke-linejoin="round" stroke="#000" stroke-miterlimit="10" />
  <path d="M 447.867188 218.707031 L 447.867188 217.9375 L 446.726563 217.9375 L 446.726563 213.273438 L 446.046875 213.273438 L 442.644531 218.003906 L 442.644531 218.707031 L 445.734375 218.707031 L 445.734375 220.46875 L 446.726563 220.46875 L 446.726563 218.707031 Z M 445.734375 217.9375 L 443.257813 217.9375 L 443.257813 217.894531 L 445.691406 214.492188 L 445.734375 214.492188 L 445.734375 217.9375" />
  <path d="M 3712.421875 854.575 L 3749.53125 854.575" transform="matrix(.1 0 0 -.1 0 257.27)" fill="none" stroke-width="7.97" stroke-linejoin="round" stroke="#000" stroke-miterlimit="10" />
  <path d="M 367.378906 173.6875 L 367.054688 173.6875 C 366.796875 174.355469 366.652344 174.589844 366.058594 174.589844 L 364.507813 174.589844 L 363.726563 174.621094 L 363.726563 174.566406 L 365.203125 173.171875 C 366.382813 171.976563 367.019531 171.210938 367.019531 170.214844 C 367.019531 169.042969 366.136719 168.285156 364.878906 168.285156 C 363.796875 168.285156 363.039063 168.910156 362.691406 169.992188 L 362.960938 170.105469 C 363.371094 169.265625 363.863281 169.011719 364.589844 169.011719 C 365.445313 169.011719 365.980469 169.546875 365.980469 170.382813 C 365.980469 171.554688 365.421875 172.257813 364.320313 173.394531 L 362.621094 175.089844 L 362.621094 175.46875 L 367.019531 175.46875 L 367.378906 173.6875" />
  <path d="M 3712.421875 1215.278125 L 3749.53125 1215.278125" transform="matrix(.1 0 0 -.1 0 257.27)" fill="none" stroke-width="7.97" stroke-linejoin="round" stroke="#000" stroke-miterlimit="10" />
  <path d="M 367.566406 137.605469 L 367.566406 136.835938 L 366.429688 136.835938 L 366.429688 132.175781 L 365.746094 132.175781 L 362.34375 136.902344 L 362.34375 137.605469 L 365.4375 137.605469 L 365.4375 139.371094 L 366.429688 139.371094 L 366.429688 137.605469 Z M 365.4375 136.835938 L 362.960938 136.835938 L 362.960938 136.792969 L 365.390625 133.390625 L 365.4375 133.390625 L 365.4375 136.835938" />
  <path d="M 3712.421875 1575.942187 L 3749.53125 1575.942187" transform="matrix(.1 0 0 -.1 0 257.27)" fill="none" stroke-width="7.97" stroke-linejoin="round" stroke="#000" stroke-miterlimit="10" />
  <path d="M 366.828125 96.0625 C 364.429688 96.164063 362.703125 97.714844 362.703125 100.402344 C 362.703125 102.042969 363.425781 103.402344 365.089844 103.402344 C 366.496094 103.402344 367.296875 102.523438 367.296875 101.007813 C 367.296875 99.542969 366.507813 98.660156 365.289063 98.660156 C 364.710938 98.660156 364.296875 98.90625 363.839844 99.355469 L 363.761719 99.34375 C 364.039063 97.714844 365.289063 96.621094 366.851563 96.386719 Z M 366.328125 101.09375 C 366.328125 102.511719 365.882813 103.015625 365.132813 103.015625 C 364.164063 103.015625 363.707031 102.019531 363.707031 100.636719 C 363.707031 99.667969 364.308594 99.308594 364.957031 99.308594 C 365.882813 99.308594 366.328125 100.089844 366.328125 101.09375" />
  <path d="M 3712.421875 1936.645312 L 3749.53125 1936.645312" transform="matrix(.1 0 0 -.1 0 257.27)" fill="none" stroke-width="7.97" stroke-linejoin="round" stroke="#000" stroke-miterlimit="10" />
  <path d="M 367.199219 65.496094 C 367.199219 64.605469 366.796875 64.066406 365.492188 63.277344 L 365.492188 63.242188 C 366.527344 62.675781 366.929688 62.304688 366.929688 61.492188 C 366.929688 60.609375 366.082031 59.949219 364.976563 59.949219 C 363.75 59.949219 362.859375 60.585938 362.859375 61.601563 C 362.859375 62.363281 363.101563 62.816406 364.242188 63.609375 L 364.242188 63.644531 C 363.203125 64.335938 362.714844 64.691406 362.714844 65.585938 C 362.714844 66.722656 363.648438 67.304688 364.945313 67.304688 C 366.273438 67.304688 367.199219 66.667969 367.199219 65.496094 Z M 366.105469 61.46875 C 366.105469 62.183594 365.882813 62.617188 365.144531 63.0625 C 364.152344 62.460938 363.726563 62.0625 363.726563 61.402344 C 363.726563 60.722656 364.195313 60.320313 364.957031 60.320313 C 365.671875 60.320313 366.105469 60.730469 366.105469 61.46875 Z M 364.578125 63.824219 C 365.925781 64.691406 366.261719 65.105469 366.261719 65.820313 C 366.261719 66.578125 365.679688 66.957031 364.988281 66.957031 C 364.140625 66.957031 363.582031 66.5 363.582031 65.496094 C 363.582031 64.726563 363.941406 64.335938 364.578125 63.824219" />
  <path d="M 2698.867188 493.871875 L 4763.125 493.871875" transform="matrix(.1 0 0 -.1 0 257.27)" fill="none" stroke-width="7.97" stroke-linejoin="round" stroke="#000" stroke-miterlimit="10" />
  <path d="M 266.023438 207.882813 L 271.492188 209.945313 L 269.6875 207.882813 L 271.492188 205.820313" />
  <path d="M 2660.234375 493.871875 L 2714.921875 473.246875 L 2696.875 493.871875 L 2714.921875 514.496875 Z M 2660.234375 493.871875" transform="matrix(.1 0 0 -.1 0 257.27)" fill="none" stroke-width="7.97" stroke="#000" stroke-miterlimit="10" />
  <path d="M 480.175781 207.882813 L 474.707031 205.820313 L 476.511719 207.882813 L 474.707031 209.945313" />
  <path d="M 4801.757813 493.871875 L 4747.070313 514.496875 L 4765.117188 493.871875 L 4747.070313 473.246875 Z M 4801.757813 493.871875" transform="matrix(.1 0 0 -.1 0 257.27)" fill="none" stroke-width="7.97" stroke="#000" stroke-miterlimit="10" />
  <path d="M 488.914063 207.144531 L 488.882813 207.144531 L 488.746094 206.578125 C 488.589844 205.976563 488.378906 205.484375 488.109375 205.171875 L 487.945313 205.171875 L 486.390625 205.351563 L 486.390625 205.683594 C 486.390625 205.683594 486.5625 205.652344 486.738281 205.652344 C 487.476563 205.640625 487.664063 205.941406 487.964844 206.878906 L 488.277344 207.894531 L 487.476563 209.0625 C 487.039063 209.6875 486.839844 209.699219 486.796875 209.699219 C 486.605469 209.699219 486.339844 209.554688 486.09375 209.554688 C 485.824219 209.554688 485.65625 209.800781 485.65625 210.023438 C 485.65625 210.304688 485.824219 210.570313 486.304688 210.570313 C 486.972656 210.570313 487.339844 210.046875 487.699219 209.464844 L 488.414063 208.304688 L 488.457031 208.304688 L 488.734375 209.433594 C 488.890625 210.15625 489.136719 210.582031 489.648438 210.582031 C 490.410156 210.582031 490.878906 209.824219 491.203125 209.332031 L 490.96875 209.152344 C 490.664063 209.554688 490.453125 209.777344 490.164063 209.777344 C 489.816406 209.777344 489.59375 209.367188 489.28125 208.339844 L 489.046875 207.582031 L 489.726563 206.5 C 489.917969 206.1875 490.074219 206.03125 490.332031 206.03125 C 490.476563 206.03125 490.734375 206.140625 490.910156 206.140625 C 491.214844 206.140625 491.425781 205.882813 491.425781 205.617188 C 491.425781 205.304688 491.289063 205.125 490.867188 205.125 C 490.207031 205.125 489.761719 205.671875 489.460938 206.210938 L 488.914063 207.144531" />
  <path d="M 3731.015625 183.129687 L 3731.015625 2247.3875" transform="matrix(.1 0 0 -.1 0 257.27)" fill="none" stroke-width="7.97" stroke-linejoin="round" stroke="#000" stroke-miterlimit="10" />
  <path d="M 373.101563 242.816406 L 375.164063 237.351563 L 373.101563 239.15625 L 371.035156 237.351563" />
  <path d="M 3731.015625 144.535937 L 3751.640625 199.184375 L 3731.015625 181.1375 L 3710.351563 199.184375 Z M 3731.015625 144.535937" transform="matrix(.1 0 0 -.1 0 257.27)" fill="none" stroke-width="7.97" stroke="#000" stroke-miterlimit="10" />
  <path d="M 373.101563 28.667969 L 371.035156 34.136719 L 373.101563 32.332031 L 375.164063 34.136719" />
  <path d="M 3731.015625 2286.020312 L 3710.351563 2231.332812 L 3731.015625 2249.379687 L 3751.640625 2231.332812 Z M 3731.015625 2286.020312" transform="matrix(.1 0 0 -.1 0 257.27)" fill="none" stroke-width="7.97" stroke="#000" stroke-miterlimit="10" />
  <path d="M373 17.542969C372.867188 16.652344 372.789063 16.296875 372.542969 15.871094L372.375 15.871094 370.789063 15.992188 370.789063 16.316406C370.789063 16.316406 371.023438 16.296875 371.179688 16.296875 371.863281 16.296875 371.917969 16.84375 371.996094 17.34375L372.65625 21.269531C372.34375 21.75 371.539063 22.8125 371.328125 22.8125 371.082031 22.8125 370.960938 22.21875 370.535156 22.21875 370.277344 22.21875 370.101563 22.363281 370.101563 22.699219 370.101563 23.109375 370.492188 23.421875 370.960938 23.421875 371.804688 23.421875 372.589844 22.160156 373.421875 21.003906 374.003906 20.199219 374.640625 19.238281 375.242188 18.179688 375.601563 17.578125 375.734375 17.074219 375.734375 16.640625 375.734375 16.160156 375.445313 15.792969 375.03125 15.792969 374.707031 15.792969 374.539063 15.992188 374.539063 16.226563 374.539063 16.652344 375.085938 16.964844 375.085938 17.253906 375.085938 17.523438 374.984375 17.789063 374.71875 18.226563L373.4375 20.289063 373.367188 20.289063 373.269531 19.171875 373 17.542969M368.621094 215.632813C368.621094 213.335938 367.617188 212.007813 366.179688 212.007813 364.5625 212.007813 363.703125 213.480469 363.703125 215.601563 363.703125 217.574219 364.359375 219.292969 366.15625 219.292969 367.90625 219.292969 368.621094 217.542969 368.621094 215.632813zM367.539063 215.699219C367.539063 217.84375 367.039063 218.890625 366.15625 218.890625 365.261719 218.890625 364.773438 217.820313 364.773438 215.65625 364.773438 213.445313 365.261719 212.386719 366.144531 212.386719 367.058594 212.386719 367.539063 213.4375 367.539063 215.699219" />
  <path d="M 3131.367188 123.442187 L 3138.242188 168.79375 L 3140.625 184.496875 L 3143.007813 200.121875 L 3145.390625 215.707812 L 3147.8125 231.215625 L 3150.195313 246.684375 L 3152.617188 262.075 L 3155 277.3875 L 3157.382813 292.660937 L 3159.765625 307.85625 L 3162.1875 322.973437 L 3164.570313 338.051562 L 3166.953125 353.051562 L 3169.375 368.0125 L 3171.757813 382.895312 L 3174.140625 397.7 L 3176.523438 412.426562 L 3178.945313 427.153125 L 3181.328125 441.7625 L 3183.710938 456.332812 L 3186.09375 470.825 L 3188.515625 485.239062 L 3190.898438 499.614062 L 3193.28125 513.95 L 3195.703125 528.16875 L 3198.085938 542.348437 L 3200.46875 556.489062 L 3202.890625 570.551562 L 3205.273438 584.535937 L 3207.65625 598.442187 L 3210.078125 612.309375 L 3212.460938 626.098437 L 3214.84375 639.848437 L 3217.226563 653.520312 L 3219.648438 667.114062 L 3222.03125 680.66875 L 3224.414063 694.145312 L 3226.835938 707.582812 L 3229.21875 720.942187 L 3231.601563 734.223437 L 3233.984375 747.426562 L 3236.40625 760.590625 L 3238.789063 773.715625 L 3241.171875 786.7625 L 3243.554688 799.73125 L 3245.976563 812.621875 L 3248.359375 825.473437 L 3250.742188 838.246875 L 3253.164063 850.98125 L 3255.546875 863.6375 L 3257.929688 876.215625 L 3260.351563 888.754687 L 3262.734375 901.215625 L 3265.117188 913.598437 L 3267.539063 925.942187 L 3269.921875 938.207812 L 3272.304688 950.434375 L 3274.6875 962.582812 L 3277.109375 974.653125 L 3279.492188 986.684375 L 3281.875 998.6375 L 3284.296875 1010.5125 L 3286.679688 1022.348437 L 3289.0625 1034.145312 L 3291.445313 1045.825 L 3293.867188 1057.465625 L 3296.25 1069.028125 L 3298.632813 1080.551562 L 3301.054688 1091.996875 L 3303.4375 1103.364062 L 3305.820313 1114.692187 L 3308.203125 1125.942187 L 3310.625 1137.153125 L 3313.007813 1148.285937 L 3315.390625 1159.340625 L 3317.8125 1170.35625 L 3320.195313 1181.29375 L 3322.578125 1192.153125 L 3324.960938 1202.973437 L 3327.382813 1213.715625 L 3329.765625 1224.41875 L 3332.148438 1235.04375 L 3334.53125 1245.590625 L 3336.953125 1256.098437 L 3339.335938 1266.528125 L 3341.757813 1276.879687 L 3344.140625 1287.192187 L 3346.523438 1297.426562 L 3348.90625 1307.582812 L 3351.328125 1317.7 L 3353.710938 1327.778125 L 3356.09375 1337.739062 L 3358.515625 1347.660937 L 3360.898438 1357.504687 L 3363.28125 1367.309375 L 3365.664063 1377.035937 L 3368.085938 1386.723437 L 3370.46875 1396.332812 L 3372.851563 1405.864062 L 3375.234375 1415.35625 L 3377.65625 1424.73125 L 3380.039063 1434.10625 L 3382.421875 1443.403125 L 3384.84375 1452.621875 L 3387.226563 1461.7625 L 3389.609375 1470.864062 L 3392.03125 1479.8875 L 3394.414063 1488.871875 L 3396.796875 1497.778125 L 3399.21875 1506.60625 L 3401.601563 1515.395312 L 3403.984375 1524.10625 L 3406.367188 1532.739062 L 3408.789063 1541.332812 L 3411.171875 1549.848437 L 3413.554688 1558.325 L 3415.976563 1566.723437 L 3418.359375 1575.04375 L 3420.742188 1583.325 L 3423.125 1591.528125 L 3425.546875 1599.653125 L 3427.929688 1607.739062 L 3430.3125 1615.746875 L 3432.695313 1623.715625 L 3435.117188 1631.60625 L 3437.5 1639.41875 L 3439.882813 1647.192187 L 3442.304688 1654.8875 L 3444.6875 1662.504687 L 3447.070313 1670.082812 L 3449.492188 1677.582812 L 3451.875 1685.04375 L 3454.257813 1692.426562 L 3456.640625 1699.73125 L 3459.0625 1706.996875 L 3461.445313 1714.184375 L 3463.828125 1721.29375 L 3466.210938 1728.364062 L 3468.632813 1735.35625 L 3471.015625 1742.309375 L 3473.4375 1749.145312 L 3475.820313 1755.942187 L 3478.203125 1762.7 L 3480.585938 1769.379687 L 3483.007813 1775.98125 L 3485.390625 1782.54375 L 3487.773438 1789.028125 L 3490.195313 1795.473437 L 3492.578125 1801.840625 L 3494.960938 1808.129687 L 3497.34375 1814.379687 L 3499.765625 1820.551562 L 3502.148438 1826.645312 L 3504.53125 1832.7 L 3506.953125 1838.676562 L 3509.335938 1844.575 L 3511.71875 1850.434375 L 3514.101563 1856.215625 L 3516.523438 1861.957812 L 3518.90625 1867.621875 L 3521.289063 1873.207812 L 3523.710938 1878.754687 L 3526.09375 1884.223437 L 3528.476563 1889.614062 L 3530.898438 1894.965625 L 3533.28125 1900.278125 L 3535.664063 1905.473437 L 3538.046875 1910.629687 L 3540.46875 1915.707812 L 3542.851563 1920.746875 L 3545.234375 1925.707812 L 3547.65625 1930.590625 L 3550.039063 1935.434375 L 3552.421875 1940.239062 L 3554.804688 1944.926562 L 3557.226563 1949.575 L 3559.609375 1954.145312 L 3561.992188 1958.676562 L 3564.375 1963.129687 L 3566.796875 1967.504687 L 3569.179688 1971.840625 L 3571.5625 1976.1375 L 3573.984375 1980.317187 L 3576.367188 1984.457812 L 3578.75 1988.520312 L 3581.171875 1992.54375 L 3583.554688 1996.489062 L 3585.9375 2000.35625 L 3588.359375 2004.184375 L 3590.742188 2007.934375 L 3593.125 2011.645312 L 3595.507813 2015.278125 L 3597.890625 2018.832812 L 3600.3125 2022.348437 L 3602.695313 2025.785937 L 3605.117188 2029.145312 L 3607.5 2032.465625 L 3609.882813 2035.707812 L 3612.265625 2038.871875 L 3614.6875 2041.996875 L 3617.070313 2045.04375 L 3619.453125 2048.051562 L 3621.875 2050.98125 L 3624.257813 2053.832812 L 3626.640625 2056.645312 L 3629.023438 2059.379687 L 3631.445313 2062.075 L 3633.828125 2064.692187 L 3636.210938 2067.23125 L 3638.632813 2069.692187 L 3641.015625 2072.114062 L 3643.398438 2074.496875 L 3645.78125 2076.801562 L 3648.203125 2079.028125 L 3650.585938 2081.176562 L 3652.96875 2083.285937 L 3655.390625 2085.317187 L 3657.773438 2087.309375 L 3660.15625 2089.223437 L 3662.578125 2091.059375 L 3664.960938 2092.85625 L 3667.34375 2094.575 L 3669.726563 2096.215625 L 3672.148438 2097.817187 L 3674.53125 2099.340625 L 3676.914063 2100.825 L 3679.335938 2102.23125 L 3681.71875 2103.559375 L 3684.101563 2104.848437 L 3686.484375 2106.059375 L 3688.90625 2107.192187 L 3691.289063 2108.285937 L 3693.671875 2109.301562 L 3696.09375 2110.278125 L 3698.476563 2111.176562 L 3700.859375 2111.996875 L 3703.242188 2112.778125 L 3705.664063 2113.48125 L 3708.046875 2114.10625 L 3710.429688 2114.692187 L 3712.851563 2115.2 L 3715.234375 2115.66875 L 3717.617188 2116.059375 L 3720.039063 2116.371875 L 3722.421875 2116.60625 L 3724.804688 2116.801562 L 3727.1875 2116.957812 L 3729.609375 2117.035937 L 3731.992188 2117.035937 L 3734.375 2116.957812 L 3736.796875 2116.840625 L 3739.179688 2116.645312 L 3741.5625 2116.410937 L 3743.945313 2116.098437 L 3746.367188 2115.707812 L 3748.75 2115.278125 L 3751.132813 2114.770312 L 3753.554688 2114.223437 L 3755.9375 2113.598437 L 3758.320313 2112.895312 L 3760.703125 2112.114062 L 3763.125 2111.29375 L 3765.507813 2110.434375 L 3767.890625 2109.496875 L 3770.3125 2108.48125 L 3772.695313 2107.3875 L 3775.078125 2106.254687 L 3777.460938 2105.04375 L 3779.882813 2103.79375 L 3782.265625 2102.465625 L 3784.648438 2101.059375 L 3787.03125 2099.614062 L 3789.453125 2098.090625 L 3791.835938 2096.489062 L 3794.257813 2094.848437 L 3796.640625 2093.129687 L 3799.023438 2091.371875 L 3801.40625 2089.535937 L 3803.828125 2087.621875 L 3806.210938 2085.66875 L 3808.59375 2083.6375 L 3811.015625 2081.528125 L 3813.398438 2079.379687 L 3815.78125 2077.153125 L 3818.164063 2074.8875 L 3820.585938 2072.54375 L 3822.96875 2070.121875 L 3825.351563 2067.660937 L 3827.773438 2065.121875 L 3830.15625 2062.504687 L 3832.539063 2059.848437 L 3834.921875 2057.114062 L 3837.34375 2054.340625 L 3839.726563 2051.489062 L 3842.109375 2048.559375 L 3844.53125 2045.551562 L 3846.914063 2042.54375 L 3849.296875 2039.41875 L 3851.71875 2036.254687 L 3854.101563 2033.0125 L 3856.484375 2029.692187 L 3858.867188 2026.332812 L 3861.289063 2022.934375 L 3863.671875 2019.41875 L 3866.054688 2015.864062 L 3868.476563 2012.270312 L 3873.242188 2004.848437 L 3875.625 2001.020312 L 3878.046875 1997.153125 L 3880.429688 1993.207812 L 3882.8125 1989.223437 L 3885.234375 1985.160937 L 3887.617188 1981.020312 L 3890 1976.840625 L 3892.382813 1972.582812 L 3894.804688 1968.285937 L 3899.570313 1959.457812 L 3901.992188 1954.926562 L 3904.375 1950.35625 L 3906.757813 1945.746875 L 3909.140625 1941.020312 L 3911.5625 1936.254687 L 3913.945313 1931.45 L 3916.328125 1926.567187 L 3918.710938 1921.60625 L 3921.132813 1916.567187 L 3923.515625 1911.489062 L 3925.9375 1906.371875 L 3928.320313 1901.1375 L 3930.703125 1895.864062 L 3933.085938 1890.551562 L 3935.507813 1885.160937 L 3937.890625 1879.692187 L 3940.273438 1874.145312 L 3942.695313 1868.559375 L 3945.078125 1862.934375 L 3947.460938 1857.192187 L 3949.84375 1851.410937 L 3952.265625 1845.590625 L 3954.648438 1839.692187 L 3957.03125 1833.715625 L 3959.453125 1827.660937 L 3961.835938 1821.567187 L 3964.21875 1815.434375 L 3966.601563 1809.184375 L 3969.023438 1802.895312 L 3971.40625 1796.567187 L 3973.789063 1790.121875 L 3976.210938 1783.676562 L 3978.59375 1777.114062 L 3980.976563 1770.5125 L 3983.398438 1763.832812 L 3985.78125 1757.114062 L 3988.164063 1750.317187 L 3990.546875 1743.442187 L 3992.96875 1736.528125 L 3995.351563 1729.535937 L 3997.734375 1722.504687 L 4000.15625 1715.395312 L 4002.539063 1708.207812 L 4007.304688 1693.676562 L 4009.726563 1686.29375 L 4012.109375 1678.871875 L 4014.492188 1671.371875 L 4016.914063 1663.79375 L 4019.296875 1656.176562 L 4021.679688 1648.48125 L 4024.0625 1640.746875 L 4026.484375 1632.934375 L 4028.867188 1625.04375 L 4031.25 1617.114062 L 4033.671875 1609.10625 L 4036.054688 1601.059375 L 4038.4375 1592.895312 L 4040.859375 1584.73125 L 4043.242188 1576.45 L 4045.625 1568.129687 L 4048.007813 1559.73125 L 4050.390625 1551.29375 L 4052.8125 1542.778125 L 4055.195313 1534.223437 L 4057.617188 1525.590625 L 4060 1516.879687 L 4062.382813 1508.090625 L 4064.765625 1499.2625 L 4067.1875 1490.395312 L 4069.570313 1481.410937 L 4071.953125 1472.3875 L 4074.375 1463.325 L 4076.757813 1454.184375 L 4079.140625 1444.965625 L 4081.523438 1435.66875 L 4083.945313 1426.332812 L 4086.328125 1416.957812 L 4088.710938 1407.465625 L 4091.132813 1397.934375 L 4093.515625 1388.364062 L 4095.898438 1378.715625 L 4098.28125 1368.989062 L 4100.703125 1359.184375 L 4103.085938 1349.340625 L 4105.46875 1339.457812 L 4107.890625 1329.457812 L 4110.273438 1319.41875 L 4112.65625 1309.301562 L 4115.078125 1299.145312 L 4117.460938 1288.910937 L 4119.84375 1278.6375 L 4122.226563 1268.285937 L 4124.648438 1257.85625 L 4127.03125 1247.3875 L 4129.414063 1236.840625 L 4131.835938 1226.215625 L 4134.21875 1215.551562 L 4136.601563 1204.809375 L 4138.984375 1194.028125 L 4141.40625 1183.129687 L 4143.789063 1172.192187 L 4146.171875 1161.215625 L 4148.59375 1150.160937 L 4150.976563 1139.067187 L 4153.359375 1127.85625 L 4155.742188 1116.60625 L 4158.164063 1105.317187 L 4160.546875 1093.95 L 4162.929688 1082.504687 L 4165.351563 1070.98125 L 4167.734375 1059.457812 L 4170.117188 1047.817187 L 4172.539063 1036.1375 L 4174.921875 1024.379687 L 4177.304688 1012.54375 L 4179.6875 1000.66875 L 4182.109375 988.715625 L 4184.492188 976.723437 L 4186.875 964.653125 L 4189.296875 952.504687 L 4191.679688 940.317187 L 4194.0625 928.051562 L 4196.445313 915.707812 L 4198.867188 903.325 L 4201.25 890.864062 L 4203.632813 878.364062 L 4206.054688 865.785937 L 4208.4375 853.129687 L 4210.820313 840.434375 L 4213.203125 827.660937 L 4215.625 814.809375 L 4218.007813 801.91875 L 4220.390625 788.95 L 4222.8125 775.942187 L 4225.195313 762.85625 L 4227.578125 749.692187 L 4229.960938 736.489062 L 4232.382813 723.207812 L 4234.765625 709.848437 L 4237.148438 696.45 L 4239.570313 682.973437 L 4241.953125 669.41875 L 4244.335938 655.825 L 4246.757813 642.192187 L 4249.140625 628.442187 L 4251.523438 614.653125 L 4253.90625 600.825 L 4256.328125 586.879687 L 4258.710938 572.934375 L 4261.09375 558.871875 L 4263.515625 544.770312 L 4265.898438 530.590625 L 4268.28125 516.371875 L 4270.664063 502.075 L 4273.085938 487.7 L 4275.46875 473.285937 L 4277.851563 458.79375 L 4280.273438 444.2625 L 4285.039063 414.965625 L 4287.421875 400.2 L 4289.84375 385.395312 L 4292.226563 370.551562 L 4294.609375 355.590625 L 4297.03125 340.590625 L 4299.414063 325.551562 L 4301.796875 310.434375 L 4304.21875 295.239062 L 4306.601563 279.965625 L 4308.984375 264.653125 L 4311.367188 249.301562 L 4313.789063 233.832812 L 4316.171875 218.364062 L 4318.554688 202.778125 L 4320.976563 187.153125 L 4323.359375 171.45 L 4325.742188 155.707812 L 4328.125 139.848437 L 4330.546875 123.989062" transform="matrix(.1 0 0 -.1 0 257.27)" fill="none" stroke-width="7.97" stroke-linejoin="round" stroke="#e14b3b" stroke-miterlimit="10" />
  <path d="M321.546875 207.882813C321.546875 206.472656 320.402344 205.332031 318.992188 205.332031 317.585938 205.332031 316.441406 206.472656 316.441406 207.882813 316.441406 209.292969 317.585938 210.433594 318.992188 210.433594 320.402344 210.433594 321.546875 209.292969 321.546875 207.882813zM283.480469 198.613281C283.480469 201.066406 284.652344 202.820313 286.445313 203.746094L286.628906 203.433594C284.996094 202.363281 284.394531 200.855469 284.394531 198.613281 284.394531 196.394531 284.996094 194.898438 286.628906 193.816406L286.445313 193.527344C284.652344 194.441406 283.480469 196.179688 283.480469 198.613281M287.691406 198.960938L294.339844 198.960938 294.339844 198.203125 287.691406 198.203125zM296.058594 195.914063C296.4375 195.324219 296.851563 195.011719 297.519531 195.011719 298.214844 195.011719 298.660156 195.390625 298.660156 196.046875 298.660156 196.953125 297.867188 197.566406 297.109375 197.566406L296.898438 197.566406 296.898438 197.988281 297.117188 197.988281C298.191406 197.988281 299.140625 198.648438 299.140625 199.640625 299.140625 200.734375 298.457031 201.058594 297.753906 201.058594 297.488281 201.058594 297.332031 201.011719 296.851563 200.765625 296.460938 200.566406 296.371094 200.511719 296.195313 200.511719 295.902344 200.511719 295.757813 200.765625 295.757813 201 295.757813 201.292969 296.003906 201.617188 297.007813 201.617188 298.636719 201.617188 300.054688 200.835938 300.054688 199.304688 300.054688 198.3125 299.304688 197.722656 298.414063 197.441406L298.414063 197.410156C299.117188 196.960938 299.617188 196.550781 299.617188 195.78125 299.617188 194.933594 298.960938 194.285156 297.820313 194.285156 296.90625 194.285156 296.214844 194.796875 295.804688 195.769531L296.058594 195.914063M301.425781 203.054688C301.871094 202.851563 302.808594 202.476563 302.808594 201.214844 302.808594 200.601563 302.507813 200.230469 301.949219 200.230469 301.503906 200.230469 301.257813 200.53125 301.257813 200.890625 301.257813 201.214844 301.4375 201.492188 301.871094 201.492188 301.996094 201.492188 302.09375 201.46875 302.21875 201.425781 302.21875 202.328125 301.703125 202.597656 301.292969 202.773438L301.425781 203.054688M310.523438 197.933594C310.523438 195.636719 309.515625 194.308594 308.078125 194.308594 306.460938 194.308594 305.601563 195.78125 305.601563 197.898438 305.601563 199.875 306.257813 201.59375 308.054688 201.59375 309.808594 201.59375 310.523438 199.84375 310.523438 197.933594zM309.4375 198C309.4375 200.140625 308.9375 201.191406 308.054688 201.191406 307.164063 201.191406 306.671875 200.121094 306.671875 197.957031 306.671875 195.746094 307.164063 194.6875 308.042969 194.6875 308.960938 194.6875 309.4375 195.734375 309.4375 198M314.390625 198.613281C314.390625 196.179688 313.21875 194.441406 311.425781 193.527344L311.246094 193.816406C312.875 194.898438 313.476563 196.394531 313.476563 198.613281 313.476563 200.855469 312.875 202.363281 311.246094 203.433594L311.425781 203.746094C313.21875 202.820313 314.390625 201.066406 314.390625 198.613281M429.757813 207.882813C429.757813 206.472656 428.613281 205.332031 427.203125 205.332031 425.796875 205.332031 424.652344 206.472656 424.652344 207.882813 424.652344 209.292969 425.796875 210.433594 427.203125 210.433594 428.613281 210.433594 429.757813 209.292969 429.757813 207.882813zM431.78125 198.613281C431.78125 201.066406 432.953125 202.820313 434.746094 203.746094L434.925781 203.433594C433.296875 202.363281 432.695313 200.855469 432.695313 198.613281 432.695313 196.394531 433.296875 194.898438 434.925781 193.816406L434.746094 193.527344C432.953125 194.441406 431.78125 196.179688 431.78125 198.613281M436.257813 195.914063C436.640625 195.324219 437.050781 195.011719 437.71875 195.011719 438.414063 195.011719 438.859375 195.390625 438.859375 196.046875 438.859375 196.953125 438.066406 197.566406 437.308594 197.566406L437.097656 197.566406 437.097656 197.988281 437.320313 197.988281C438.390625 197.988281 439.339844 198.648438 439.339844 199.640625 439.339844 200.734375 438.65625 201.058594 437.953125 201.058594 437.6875 201.058594 437.53125 201.011719 437.050781 200.765625 436.660156 200.566406 436.570313 200.511719 436.394531 200.511719 436.101563 200.511719 435.957031 200.765625 435.957031 201 435.957031 201.292969 436.203125 201.617188 437.207031 201.617188 438.835938 201.617188 440.253906 200.835938 440.253906 199.304688 440.253906 198.3125 439.507813 197.722656 438.613281 197.441406L438.613281 197.410156C439.316406 196.960938 439.820313 196.550781 439.820313 195.78125 439.820313 194.933594 439.160156 194.285156 438.023438 194.285156 437.109375 194.285156 436.414063 194.796875 436.003906 195.769531L436.257813 195.914063M441.726563 203.054688C442.171875 202.851563 443.109375 202.476563 443.109375 201.214844 443.109375 200.601563 442.808594 200.230469 442.25 200.230469 441.804688 200.230469 441.558594 200.53125 441.558594 200.890625 441.558594 201.214844 441.738281 201.492188 442.171875 201.492188 442.296875 201.492188 442.394531 201.46875 442.515625 201.425781 442.515625 202.328125 442.003906 202.597656 441.59375 202.773438L441.726563 203.054688M450.722656 197.933594C450.722656 195.636719 449.71875 194.308594 448.277344 194.308594 446.660156 194.308594 445.800781 195.78125 445.800781 197.898438 445.800781 199.875 446.460938 201.59375 448.257813 201.59375 450.007813 201.59375 450.722656 199.84375 450.722656 197.933594zM449.640625 198C449.640625 200.140625 449.136719 201.191406 448.257813 201.191406 447.363281 201.191406 446.871094 200.121094 446.871094 197.957031 446.871094 195.746094 447.363281 194.6875 448.242188 194.6875 449.160156 194.6875 449.640625 195.734375 449.640625 198M454.59375 198.613281C454.59375 196.179688 453.421875 194.441406 451.625 193.527344L451.445313 193.816406C453.074219 194.898438 453.675781 196.394531 453.675781 198.613281 453.675781 200.855469 453.074219 202.363281 451.445313 203.433594L451.625 203.746094C453.421875 202.820313 454.59375 201.066406 454.59375 198.613281M375.652344 45.566406C375.652344 44.15625 374.507813 43.015625 373.101563 43.015625 371.691406 43.015625 370.546875 44.15625 370.546875 45.566406 370.546875 46.976563 371.691406 48.117188 373.101563 48.117188 374.507813 48.117188 375.652344 46.976563 375.652344 45.566406zM377.679688 36.3125C377.679688 38.765625 378.851563 40.519531 380.648438 41.445313L380.828125 41.132813C379.195313 40.0625 378.59375 38.554688 378.59375 36.3125 378.59375 34.09375 379.195313 32.597656 380.828125 31.515625L380.648438 31.226563C378.851563 32.140625 377.679688 33.882813 377.679688 36.3125M386.421875 35.632813C386.421875 33.335938 385.417969 32.007813 383.976563 32.007813 382.359375 32.007813 381.503906 33.480469 381.503906 35.601563 381.503906 37.574219 382.160156 39.292969 383.957031 39.292969 385.707031 39.292969 386.421875 37.542969 386.421875 35.632813zM385.339844 35.699219C385.339844 37.84375 384.839844 38.890625 383.957031 38.890625 383.0625 38.890625 382.570313 37.820313 382.570313 35.65625 382.570313 33.445313 383.0625 32.386719 383.945313 32.386719 384.859375 32.386719 385.339844 33.4375 385.339844 35.699219M387.625 40.753906C388.070313 40.554688 389.007813 40.175781 389.007813 38.914063 389.007813 38.300781 388.707031 37.929688 388.148438 37.929688 387.703125 37.929688 387.457031 38.230469 387.457031 38.589844 387.457031 38.914063 387.636719 39.191406 388.070313 39.191406 388.195313 39.191406 388.296875 39.171875 388.417969 39.125 388.417969 40.027344 387.90625 40.296875 387.492188 40.476563L387.625 40.753906M392.347656 39.316406C394.8125 39.292969 396.421875 37.875 396.421875 34.996094 396.421875 33.347656 395.738281 31.964844 394.078125 31.964844 392.671875 31.964844 391.835938 32.84375 391.835938 34.351563 391.835938 35.824219 392.628906 36.691406 393.84375 36.691406 394.402344 36.691406 394.804688 36.460938 395.304688 36L395.371094 36.011719C395.128906 37.820313 393.867188 38.8125 392.328125 38.992188zM392.804688 34.285156C392.804688 32.855469 393.308594 32.34375 394.03125 32.34375 395.015625 32.34375 395.414063 33.335938 395.414063 34.730469 395.414063 35.6875 394.824219 36.035156 394.179688 36.035156 393.253906 36.035156 392.804688 35.320313 392.804688 34.285156M400.492188 36.3125C400.492188 33.882813 399.320313 32.140625 397.523438 31.226563L397.34375 31.515625C398.976563 32.597656 399.578125 34.09375 399.578125 36.3125 399.578125 38.554688 398.976563 40.0625 397.34375 41.132813L397.523438 41.445313C399.320313 40.519531 400.492188 38.765625 400.492188 36.3125" />
  <path d="M418.898438 131.144531C418.765625 130.25 418.6875 129.894531 418.441406 129.46875L418.273438 129.46875 416.691406 129.59375 416.691406 129.917969C416.691406 129.917969 416.925781 129.894531 417.082031 129.894531 417.761719 129.894531 417.820313 130.441406 417.898438 130.941406L418.554688 134.871094C418.242188 135.351563 417.4375 136.410156 417.226563 136.410156 416.980469 136.410156 416.859375 135.816406 416.433594 135.816406 416.179688 135.816406 416 135.964844 416 136.296875 416 136.710938 416.390625 137.023438 416.859375 137.023438 417.707031 137.023438 418.488281 135.761719 419.324219 134.601563 419.90625 133.800781 420.539063 132.839844 421.140625 131.777344 421.5 131.179688 421.632813 130.675781 421.632813 130.238281 421.632813 129.761719 421.34375 129.390625 420.929688 129.390625 420.609375 129.390625 420.4375 129.59375 420.4375 129.828125 420.4375 130.25 420.984375 130.5625 420.984375 130.855469 420.984375 131.121094 420.886719 131.390625 420.617188 131.824219L419.335938 133.890625 419.269531 133.890625 419.167969 132.773438 418.898438 131.144531M432.640625 131.121094L432.640625 130.363281 425.992188 130.363281 425.992188 131.121094zM432.640625 133.398438L432.640625 132.648438 425.992188 132.648438 425.992188 133.398438 432.640625 133.398438M437.191406 132.257813L443.839844 132.257813 443.839844 131.5 437.191406 131.5zM448.113281 131.445313L448.082031 131.445313 447.945313 130.875C447.789063 130.273438 447.578125 129.78125 447.3125 129.46875L447.144531 129.46875 445.59375 129.648438 445.59375 129.984375C445.59375 129.984375 445.761719 129.949219 445.9375 129.949219 446.675781 129.9375 446.863281 130.238281 447.164063 131.179688L447.476563 132.191406 446.675781 133.363281C446.242188 133.988281 446.039063 134 445.996094 134 445.804688 134 445.539063 133.855469 445.292969 133.855469 445.023438 133.855469 444.855469 134.101563 444.855469 134.324219 444.855469 134.601563 445.023438 134.871094 445.503906 134.871094 446.171875 134.871094 446.539063 134.347656 446.898438 133.765625L447.613281 132.605469 447.65625 132.605469 447.9375 133.730469C448.09375 134.457031 448.339844 134.882813 448.851563 134.882813 449.609375 134.882813 450.078125 134.121094 450.402344 133.632813L450.167969 133.453125C449.867188 133.855469 449.652344 134.078125 449.363281 134.078125 449.015625 134.078125 448.796875 133.664063 448.484375 132.640625L448.246094 131.882813 448.929688 130.796875C449.117188 130.484375 449.273438 130.328125 449.53125 130.328125 449.675781 130.328125 449.933594 130.441406 450.109375 130.441406 450.414063 130.441406 450.625 130.183594 450.625 129.917969 450.625 129.605469 450.492188 129.425781 450.066406 129.425781 449.40625 129.425781 448.964844 129.972656 448.660156 130.507813L448.113281 131.445313M455.011719 129.414063L454.738281 129.414063C454.535156 129.921875 454.441406 130.09375 453.996094 130.09375L452.984375 130.09375 452.378906 130.121094 452.378906 130.066406 453.351563 129.125C454.214844 128.277344 454.761719 127.707031 454.761719 126.941406 454.761719 126.0625 454.101563 125.539063 453.171875 125.539063 452.367188 125.539063 451.816406 125.984375 451.558594 126.710938L451.769531 126.8125C452.058594 126.304688 452.414063 126.09375 452.976563 126.09375 453.585938 126.09375 453.945313 126.488281 453.945313 127.046875 453.945313 127.925781 453.53125 128.394531 452.65625 129.265625L451.550781 130.390625 451.550781 130.769531 454.746094 130.769531 455.011719 129.414063M465.539063 132.257813L465.539063 131.5 462.617188 131.5 462.617188 128.546875 461.8125 128.546875 461.8125 131.5 458.890625 131.5 458.890625 132.257813 461.8125 132.257813 461.8125 135.21875 462.617188 135.21875 462.617188 132.257813 465.539063 132.257813M469.746094 134.914063C472.214844 134.894531 473.820313 133.476563 473.820313 130.597656 473.820313 128.945313 473.140625 127.5625 471.476563 127.5625 470.070313 127.5625 469.234375 128.445313 469.234375 129.949219 469.234375 131.421875 470.027344 132.292969 471.242188 132.292969 471.800781 132.292969 472.203125 132.058594 472.703125 131.601563L472.773438 131.613281C472.527344 133.421875 471.265625 134.414063 469.726563 134.59375zM470.207031 129.882813C470.207031 128.457031 470.707031 127.941406 471.433594 127.941406 472.414063 127.941406 472.816406 128.9375 472.816406 130.328125 472.816406 131.289063 472.226563 131.636719 471.578125 131.636719 470.652344 131.636719 470.207031 130.921875 470.207031 129.882813" fill="#e14b3b" />
</svg>